<svg xmlns="http://www.w3.org/2000/svg" viewBox="0 0 88.75 88.72"><defs><style>.cls-1{fill:#4ca74f;fill-rule:evenodd;}</style></defs><g id="图层_2" data-name="图层 2"><g id="图层_1-2" data-name="图层 1"><path class="cls-1" d="M5.54,88.72H83.18a5.55,5.55,0,0,0,5.54-5.54V31.24H0V83.18A5.55,5.55,0,0,0,5.54,88.72ZM19.09,0a5.25,5.25,0,0,1,5.27,5.21V17.5a5.23,5.23,0,0,1-10.46,0h0V5.23A5.24,5.24,0,0,1,19.13,0ZM69.63,0a5.24,5.24,0,0,1,5.23,5.23V17.5a5.23,5.23,0,0,1-10.46,0V5.23A5.24,5.24,0,0,1,69.63,0ZM51.08,71.64H56.8a1.8,1.8,0,0,1,1.8,1.79v5.73A1.82,1.82,0,0,1,56.8,81H51.08a1.82,1.82,0,0,1-1.8-1.8V73.43A1.8,1.8,0,0,1,51.08,71.64Zm-19.16,0h5.72a1.8,1.8,0,0,1,1.8,1.79v5.73a1.82,1.82,0,0,1-1.8,1.8H31.92a1.82,1.82,0,0,1-1.8-1.8V73.43A1.8,1.8,0,0,1,31.92,71.64ZM70.24,54.76H76a1.8,1.8,0,0,1,1.79,1.8v5.73A1.8,1.8,0,0,1,76,64.09H70.24a1.82,1.82,0,0,1-1.8-1.8V56.56A1.82,1.82,0,0,1,70.24,54.76Zm-19.16,0H56.8a1.82,1.82,0,0,1,1.8,1.8v5.73a1.82,1.82,0,0,1-1.8,1.8H51.08a1.82,1.82,0,0,1-1.8-1.8V56.56A1.82,1.82,0,0,1,51.08,54.76Zm-19.16,0h5.72a1.82,1.82,0,0,1,1.8,1.8v5.73a1.82,1.82,0,0,1-1.8,1.8H31.92a1.82,1.82,0,0,1-1.8-1.8V56.56A1.82,1.82,0,0,1,31.92,54.76ZM70.24,37.89H76a1.8,1.8,0,0,1,1.79,1.8v5.73A1.79,1.79,0,0,1,76,47.21H70.24a1.8,1.8,0,0,1-1.8-1.79V39.69A1.82,1.82,0,0,1,70.24,37.89Zm-19.16,0H56.8a1.82,1.82,0,0,1,1.8,1.8v5.73a1.8,1.8,0,0,1-1.8,1.79H51.08a1.8,1.8,0,0,1-1.8-1.79V39.69A1.82,1.82,0,0,1,51.08,37.89Zm-19.16,0h5.72a1.82,1.82,0,0,1,1.8,1.8v5.73a1.8,1.8,0,0,1-1.8,1.79H31.92a1.8,1.8,0,0,1-1.8-1.79V39.69A1.82,1.82,0,0,1,31.92,37.89ZM12.75,71.64h5.73a1.8,1.8,0,0,1,1.8,1.79v5.73a1.82,1.82,0,0,1-1.8,1.8H12.75A1.8,1.8,0,0,1,11,79.16V73.43a1.79,1.79,0,0,1,1.79-1.79Zm0-16.88h5.73a1.82,1.82,0,0,1,1.8,1.8v5.73a1.82,1.82,0,0,1-1.8,1.8H12.75A1.8,1.8,0,0,1,11,62.29V56.56A1.8,1.8,0,0,1,12.75,54.76Zm0-16.87h5.73a1.82,1.82,0,0,1,1.8,1.8v5.73a1.8,1.8,0,0,1-1.8,1.79H12.75A1.79,1.79,0,0,1,11,45.42h0V39.69A1.8,1.8,0,0,1,12.75,37.89Zm76-8.87V16.91a5.54,5.54,0,0,0-5.55-5.55H77.08v6.13a7.45,7.45,0,0,1-14.9,0h0V11.36H26.54v6.13a7.45,7.45,0,0,1-14.9,0h0V11.36H5.54A5.55,5.55,0,0,0,0,16.9V29Z"/></g></g></svg>