<svg xmlns="http://www.w3.org/2000/svg" viewBox="0 0 316.66 354.94"><defs><style>.cls-1{fill:#4ca74f;}</style></defs><g id="图层_2" data-name="图层 2"><g id="图层_1-2" data-name="图层 1"><path class="cls-1" d="M316.66,300.34A104.53,104.53,0,0,0,234.6,198.28a52.68,52.68,0,0,1,15,32.57,25.55,25.55,0,1,1-11.78.16,41.17,41.17,0,0,0-28.32-34.74h-105A41.11,41.11,0,0,0,76,234.06a13,13,0,0,1,5.24,5.83c8.38,4,15.79,12.28,21.46,24.15a8.38,8.38,0,0,1,.37,6.31,76,76,0,0,1,5.35,26.35c0,11.25,0,21.89-12.27,24.62A7.36,7.36,0,0,1,91.4,323H83.21a7.48,7.48,0,0,1-7.47-7.46l0-.53a7.51,7.51,0,0,1,7.44-6.93H91.4a7.29,7.29,0,0,1,2.45.42,2.52,2.52,0,0,0,.65-.25c.92-1.63.92-8.36.92-11.59A62.4,62.4,0,0,0,90.92,275a8.48,8.48,0,0,1-3.42-3.67c-5-10.4-11.73-17.12-17.22-17.12s-12.71,7.26-17.66,18.07a8.44,8.44,0,0,1-4,4.05,61,61,0,0,0-4,20.39c0,2.71,0,9.93,1,11.62a4,4,0,0,0,.89.3,7.61,7.61,0,0,1,2.67-.49h8.21a7.46,7.46,0,0,1,7.4,6.59l0,.08v.49A7.53,7.53,0,0,1,57.46,323H49.25a7.39,7.39,0,0,1-4.5-1.53c-4.69-.89-8-3-10.09-6.32-2.53-4.08-3-9.43-3-18.49a74.79,74.79,0,0,1,5.18-25.87,8.23,8.23,0,0,1,.49-5.59,62,62,0,0,1,12.78-18.81,35.4,35.4,0,0,1,8.59-6.19A13.12,13.12,0,0,1,64.22,234a52.55,52.55,0,0,1,14.47-35A104.54,104.54,0,0,0,0,300.34c0,52,38,54.6,87.82,54.6,5.43,0,11,0,16.69,0H212.16c5.66,0,11.24,0,16.67,0C278.62,354.94,316.66,352.39,316.66,300.34Zm-91.6,10.93a2.6,2.6,0,0,1-2.74,2.45H207.4v14.92a2.61,2.61,0,0,1-2.45,2.75H190.22a2.62,2.62,0,0,1-2.45-2.75V313.72H172.85a2.6,2.6,0,0,1-2.74-2.45V296.55a2.61,2.61,0,0,1,2.74-2.45h14.92V279.18a2.61,2.61,0,0,1,2.45-2.75H205a2.62,2.62,0,0,1,2.45,2.75V294.1h14.92a2.6,2.6,0,0,1,2.74,2.45Z"/><circle class="cls-1" cx="158.33" cy="90.29" r="90.29"/><circle class="cls-1" cx="244.05" cy="255.73" r="11.78"/></g></g></svg>