<svg xmlns="http://www.w3.org/2000/svg" viewBox="0 0 303.98 273.65"><defs><style>.cls-1{fill:#4ca74f;}</style></defs><g id="图层_2" data-name="图层 2"><g id="图层_1-2" data-name="图层 1"><path class="cls-1" d="M266,0H38A38,38,0,0,0,0,38V182.39a38,38,0,0,0,38,38H98a7.6,7.6,0,0,1,6.16,3.15l29.33,40.65a22.8,22.8,0,0,0,37,0l29.33-40.65a7.6,7.6,0,0,1,6.16-3.15h60a38,38,0,0,0,38-38V38A38,38,0,0,0,266,0ZM115.36,159.43a15.19,15.19,0,0,1-15.2,15.2H89.72a15.19,15.19,0,0,1-15.2-15.2V100a15.19,15.19,0,0,1,15.2-15.2h10.44a15.19,15.19,0,0,1,15.2,15.2Zm113.77-58.14L213.9,165.4A12.23,12.23,0,0,1,202,174.8H148.4a44.66,44.66,0,0,1-20.09-4.74L123,163.57V97.46l1.22-4.41a45.74,45.74,0,0,0,20.42-20.42L160.91,40a7.74,7.74,0,0,1,6.41-4.41,18.47,18.47,0,0,1,18.09,24.92l-9.63,25.68h41.45a12.28,12.28,0,0,1,11.92,15.07Z"/><path class="cls-1" d="M94.94,99.51a5.7,5.7,0,0,0-5.7,5.7v8.16a5.7,5.7,0,1,0,11.4,0v-8.16A5.7,5.7,0,0,0,94.94,99.51Z"/></g></g></svg>