<svg xmlns="http://www.w3.org/2000/svg" viewBox="0 0 90.01 86.03"><defs><style>.cls-1{fill:#f5df44;fill-rule:evenodd;}</style></defs><g id="图层_2" data-name="图层 2"><g id="图层_1-2" data-name="图层 1"><path class="cls-1" d="M49,2.57l10.6,23.18a1.51,1.51,0,0,0,1.24.9l25.32,2.91a4.36,4.36,0,0,1,2.45,7.56L69.81,54.35a1.49,1.49,0,0,0-.47,1.46l5,25A4.34,4.34,0,0,1,68,85.45L45.77,72.93a1.5,1.5,0,0,0-1.53,0L22,85.45a4.35,4.35,0,0,1-6.42-4.66l5.05-25a1.5,1.5,0,0,0-.48-1.46L1.43,37.11a4.35,4.35,0,0,1,2.45-7.55l25.33-2.91a1.52,1.52,0,0,0,1.24-.9L41,2.57a4.34,4.34,0,0,1,7.93,0Z"/></g></g></svg>